<svg width="24" height="24" viewBox="0 0 24 24" fill="none" xmlns="http://www.w3.org/2000/svg">
<g id="Turtle Studio/Light/generate">
<g id="Rectangle 40755">
<path d="M12 22C17.5228 22 22 17.5228 22 12C22 6.47715 17.5228 2 12 2C6.47715 2 2 6.47715 2 12C2 17.5228 6.47715 22 12 22Z" stroke="#666666" stroke-width="2"/>
<path d="M12 22C17.5228 22 22 17.5228 22 12C22 6.47715 17.5228 2 12 2C6.47715 2 2 6.47715 2 12C2 17.5228 6.47715 22 12 22Z" stroke="#666666" stroke-opacity="0.2" stroke-width="2"/>
<path d="M12 22C17.5228 22 22 17.5228 22 12C22 6.47715 17.5228 2 12 2C6.47715 2 2 6.47715 2 12C2 17.5228 6.47715 22 12 22Z" stroke="#666666" stroke-opacity="0.2" stroke-width="2"/>
<path d="M12 22C17.5228 22 22 17.5228 22 12C22 6.47715 17.5228 2 12 2C6.47715 2 2 6.47715 2 12C2 17.5228 6.47715 22 12 22Z" stroke="#666666" stroke-opacity="0.2" stroke-width="2"/>
</g>
<g id="Star 3">
<path d="M12.5 5L13.1131 8.8043C13.3339 10.1741 14.3801 11.2639 15.7398 11.5404L18 12L15.7398 12.4596C14.3801 12.7361 13.3339 13.8259 13.1131 15.1957L12.5 19L11.8869 15.1957C11.6661 13.8259 10.6199 12.7361 9.26021 12.4596L7 12L9.26021 11.5404C10.6199 11.2639 11.6661 10.1741 11.8869 8.8043L12.5 5Z" fill="#666666"/>
<path d="M12.5 5L13.1131 8.8043C13.3339 10.1741 14.3801 11.2639 15.7398 11.5404L18 12L15.7398 12.4596C14.3801 12.7361 13.3339 13.8259 13.1131 15.1957L12.5 19L11.8869 15.1957C11.6661 13.8259 10.6199 12.7361 9.26021 12.4596L7 12L9.26021 11.5404C10.6199 11.2639 11.6661 10.1741 11.8869 8.8043L12.5 5Z" fill="#666666" fill-opacity="0.2"/>
<path d="M12.5 5L13.1131 8.8043C13.3339 10.1741 14.3801 11.2639 15.7398 11.5404L18 12L15.7398 12.4596C14.3801 12.7361 13.3339 13.8259 13.1131 15.1957L12.5 19L11.8869 15.1957C11.6661 13.8259 10.6199 12.7361 9.26021 12.4596L7 12L9.26021 11.5404C10.6199 11.2639 11.6661 10.1741 11.8869 8.8043L12.5 5Z" fill="#666666" fill-opacity="0.2"/>
<path d="M12.5 5L13.1131 8.8043C13.3339 10.1741 14.3801 11.2639 15.7398 11.5404L18 12L15.7398 12.4596C14.3801 12.7361 13.3339 13.8259 13.1131 15.1957L12.5 19L11.8869 15.1957C11.6661 13.8259 10.6199 12.7361 9.26021 12.4596L7 12L9.26021 11.5404C10.6199 11.2639 11.6661 10.1741 11.8869 8.8043L12.5 5Z" fill="#666666" fill-opacity="0.2"/>
</g>
<g id="Star 4">
<path d="M15.5 7L15.6469 7.71594C15.7193 8.06923 16.003 8.34071 16.3591 8.39761L17 8.5L16.3591 8.60239C16.003 8.65929 15.7193 8.93077 15.6469 9.28406L15.5 10L15.3531 9.28406C15.2807 8.93078 14.997 8.65929 14.6409 8.60239L14 8.5L14.6409 8.39761C14.997 8.34071 15.2807 8.06923 15.3531 7.71594L15.5 7Z" fill="#666666"/>
<path d="M15.5 7L15.6469 7.71594C15.7193 8.06923 16.003 8.34071 16.3591 8.39761L17 8.5L16.3591 8.60239C16.003 8.65929 15.7193 8.93077 15.6469 9.28406L15.5 10L15.3531 9.28406C15.2807 8.93078 14.997 8.65929 14.6409 8.60239L14 8.5L14.6409 8.39761C14.997 8.34071 15.2807 8.06923 15.3531 7.71594L15.5 7Z" fill="#666666" fill-opacity="0.2"/>
<path d="M15.5 7L15.6469 7.71594C15.7193 8.06923 16.003 8.34071 16.3591 8.39761L17 8.5L16.3591 8.60239C16.003 8.65929 15.7193 8.93077 15.6469 9.28406L15.5 10L15.3531 9.28406C15.2807 8.93078 14.997 8.65929 14.6409 8.60239L14 8.5L14.6409 8.39761C14.997 8.34071 15.2807 8.06923 15.3531 7.71594L15.5 7Z" fill="#666666" fill-opacity="0.2"/>
<path d="M15.5 7L15.6469 7.71594C15.7193 8.06923 16.003 8.34071 16.3591 8.39761L17 8.5L16.3591 8.60239C16.003 8.65929 15.7193 8.93077 15.6469 9.28406L15.5 10L15.3531 9.28406C15.2807 8.93078 14.997 8.65929 14.6409 8.60239L14 8.5L14.6409 8.39761C14.997 8.34071 15.2807 8.06923 15.3531 7.71594L15.5 7Z" fill="#666666" fill-opacity="0.2"/>
</g>
</g>
</svg>
