<svg width="25" height="24" viewBox="0 0 25 24" fill="none" xmlns="http://www.w3.org/2000/svg">
<g id="Turtle Studio/Light/generate">
<g id="Rectangle 40755">
<path d="M12.2905 22C17.8134 22 22.2905 17.5228 22.2905 12C22.2905 6.47715 17.8134 2 12.2905 2C6.76768 2 2.29053 6.47715 2.29053 12C2.29053 17.5228 6.76768 22 12.2905 22Z" stroke="white" stroke-width="2"/>
<path d="M12.2905 22C17.8134 22 22.2905 17.5228 22.2905 12C22.2905 6.47715 17.8134 2 12.2905 2C6.76768 2 2.29053 6.47715 2.29053 12C2.29053 17.5228 6.76768 22 12.2905 22Z" stroke="white" stroke-opacity="0.2" stroke-width="2"/>
<path d="M12.2905 22C17.8134 22 22.2905 17.5228 22.2905 12C22.2905 6.47715 17.8134 2 12.2905 2C6.76768 2 2.29053 6.47715 2.29053 12C2.29053 17.5228 6.76768 22 12.2905 22Z" stroke="white" stroke-opacity="0.2" stroke-width="2"/>
<path d="M12.2905 22C17.8134 22 22.2905 17.5228 22.2905 12C22.2905 6.47715 17.8134 2 12.2905 2C6.76768 2 2.29053 6.47715 2.29053 12C2.29053 17.5228 6.76768 22 12.2905 22Z" stroke="white" stroke-opacity="0.2" stroke-width="2"/>
</g>
<g id="Star 3">
<path d="M12.7905 5L13.4037 8.8043C13.6244 10.1741 14.6706 11.2639 16.0303 11.5404L18.2905 12L16.0303 12.4596C14.6706 12.7361 13.6244 13.8259 13.4037 15.1957L12.7905 19L12.1774 15.1957C11.9566 13.8259 10.9104 12.7361 9.55074 12.4596L7.29053 12L9.55074 11.5404C10.9104 11.2639 11.9566 10.1741 12.1774 8.8043L12.7905 5Z" fill="white"/>
<path d="M12.7905 5L13.4037 8.8043C13.6244 10.1741 14.6706 11.2639 16.0303 11.5404L18.2905 12L16.0303 12.4596C14.6706 12.7361 13.6244 13.8259 13.4037 15.1957L12.7905 19L12.1774 15.1957C11.9566 13.8259 10.9104 12.7361 9.55074 12.4596L7.29053 12L9.55074 11.5404C10.9104 11.2639 11.9566 10.1741 12.1774 8.8043L12.7905 5Z" fill="white" fill-opacity="0.2"/>
<path d="M12.7905 5L13.4037 8.8043C13.6244 10.1741 14.6706 11.2639 16.0303 11.5404L18.2905 12L16.0303 12.4596C14.6706 12.7361 13.6244 13.8259 13.4037 15.1957L12.7905 19L12.1774 15.1957C11.9566 13.8259 10.9104 12.7361 9.55074 12.4596L7.29053 12L9.55074 11.5404C10.9104 11.2639 11.9566 10.1741 12.1774 8.8043L12.7905 5Z" fill="white" fill-opacity="0.2"/>
<path d="M12.7905 5L13.4037 8.8043C13.6244 10.1741 14.6706 11.2639 16.0303 11.5404L18.2905 12L16.0303 12.4596C14.6706 12.7361 13.6244 13.8259 13.4037 15.1957L12.7905 19L12.1774 15.1957C11.9566 13.8259 10.9104 12.7361 9.55074 12.4596L7.29053 12L9.55074 11.5404C10.9104 11.2639 11.9566 10.1741 12.1774 8.8043L12.7905 5Z" fill="white" fill-opacity="0.2"/>
</g>
<g id="Star 4">
<path d="M15.7905 7L15.9374 7.71594C16.0099 8.06923 16.2935 8.34071 16.6496 8.39761L17.2905 8.5L16.6496 8.60239C16.2935 8.65929 16.0099 8.93077 15.9374 9.28406L15.7905 10L15.6437 9.28406C15.5712 8.93078 15.2875 8.65929 14.9314 8.60239L14.2905 8.5L14.9314 8.39761C15.2875 8.34071 15.5712 8.06923 15.6437 7.71594L15.7905 7Z" fill="white"/>
<path d="M15.7905 7L15.9374 7.71594C16.0099 8.06923 16.2935 8.34071 16.6496 8.39761L17.2905 8.5L16.6496 8.60239C16.2935 8.65929 16.0099 8.93077 15.9374 9.28406L15.7905 10L15.6437 9.28406C15.5712 8.93078 15.2875 8.65929 14.9314 8.60239L14.2905 8.5L14.9314 8.39761C15.2875 8.34071 15.5712 8.06923 15.6437 7.71594L15.7905 7Z" fill="white" fill-opacity="0.2"/>
<path d="M15.7905 7L15.9374 7.71594C16.0099 8.06923 16.2935 8.34071 16.6496 8.39761L17.2905 8.5L16.6496 8.60239C16.2935 8.65929 16.0099 8.93077 15.9374 9.28406L15.7905 10L15.6437 9.28406C15.5712 8.93078 15.2875 8.65929 14.9314 8.60239L14.2905 8.5L14.9314 8.39761C15.2875 8.34071 15.5712 8.06923 15.6437 7.71594L15.7905 7Z" fill="white" fill-opacity="0.2"/>
<path d="M15.7905 7L15.9374 7.71594C16.0099 8.06923 16.2935 8.34071 16.6496 8.39761L17.2905 8.5L16.6496 8.60239C16.2935 8.65929 16.0099 8.93077 15.9374 9.28406L15.7905 10L15.6437 9.28406C15.5712 8.93078 15.2875 8.65929 14.9314 8.60239L14.2905 8.5L14.9314 8.39761C15.2875 8.34071 15.5712 8.06923 15.6437 7.71594L15.7905 7Z" fill="white" fill-opacity="0.2"/>
</g>
</g>
</svg>
