<svg width="24" height="24" viewBox="0 0 24 24" fill="none" xmlns="http://www.w3.org/2000/svg">
<g id="Frame">
<path id="Vector" d="M14.7142 1.5C14.8476 1.5 14.9798 1.52628 15.1031 1.57734C15.2263 1.62841 15.3384 1.70325 15.4327 1.79761L20.8521 7.21697C20.9464 7.31133 21.0213 7.42335 21.0724 7.54663C21.1234 7.66992 21.1497 7.80205 21.1497 7.93549V20.129C21.1497 21.4385 20.0882 22.5 18.7787 22.5H5.23031C3.92088 22.5 2.85938 21.4385 2.85938 20.129V3.87094C2.85938 2.56151 3.92088 1.5 5.23034 1.5H14.7142ZM14.2929 3.53227H5.23031C5.04326 3.53227 4.89162 3.68391 4.89162 3.87096V20.1291C4.89162 20.3161 5.04326 20.4678 5.23031 20.4678H18.7787C18.9658 20.4678 19.1174 20.3161 19.1174 20.1291V8.35687L14.2929 3.53222L14.2929 3.53227ZM12.0456 8.5718C12.4424 8.96864 12.4424 9.612 12.0456 10.0088L10.9058 11.1478L15.3916 11.1482C15.9528 11.1482 16.4078 11.6032 16.4078 12.1644C16.4078 12.7256 15.9528 13.1805 15.3916 13.1805L10.9058 13.1801L12.0456 14.3199C12.4094 14.6837 12.4397 15.2546 12.1366 15.6529L12.0456 15.7569C11.6488 16.1537 11.0054 16.1537 10.6086 15.7569L7.99584 13.1441C7.45472 12.603 7.45472 11.7257 7.99584 11.1846L10.6086 8.5718C11.0054 8.17495 11.6488 8.17495 12.0456 8.5718Z" fill="#666666"/>
</g>
</svg>
