<svg width="32" height="32" viewBox="0 0 32 32" fill="none" xmlns="http://www.w3.org/2000/svg">
<g id="Frame">
<rect x="1" y="1" width="30" height="30" rx="15" stroke="#3788FF" stroke-width="2"/>
<path id="Vector" d="M12.1366 16L19.7543 9.30693C19.9116 9.16865 20 8.98125 20 8.78587C20 8.59049 19.9116 8.4031 19.7543 8.26481L19.6988 8.21612C19.6209 8.14761 19.5284 8.09326 19.4266 8.05618C19.3248 8.01909 19.2156 8 19.1053 8C18.995 8 18.8859 8.01909 18.784 8.05618C18.6822 8.09326 18.5897 8.14761 18.5118 8.21612L10.3375 15.3996C10.3251 15.4093 10.313 15.4193 10.3011 15.4298L10.2456 15.4783C10.0987 15.6075 10.0116 15.7798 10.0011 15.9621C9.99058 16.1444 10.0575 16.3236 10.1888 16.4651C10.2069 16.4849 10.2262 16.5038 10.2467 16.5217L10.302 16.5704L10.3062 16.5739L18.5109 23.7839C18.5888 23.8524 18.6813 23.9067 18.7831 23.9438C18.885 23.9809 18.9942 24 19.1044 24C19.2147 24 19.3239 23.9809 19.4257 23.9438C19.5276 23.9067 19.6201 23.8524 19.6979 23.7839L19.7532 23.7352C19.9105 23.5969 19.9989 23.4095 19.9989 23.2141C19.9989 23.0188 19.9105 22.8314 19.7532 22.6931L12.1366 16Z" fill="#3788FF"/>
</g>
</svg>
