<svg width="19" height="22" viewBox="0 0 19 22" fill="none" xmlns="http://www.w3.org/2000/svg">
<g id="Frame 1142812814">
<path id="Vector" d="M11.8548 0.5C11.9883 0.499998 12.1204 0.526279 12.2437 0.577343C12.367 0.628406 12.479 0.703253 12.5734 0.797609L17.9927 6.21697C18.0871 6.31133 18.1619 6.42335 18.213 6.54663C18.264 6.66992 18.2903 6.80205 18.2903 6.93549V19.129C18.2903 20.4385 17.2288 21.5 15.9194 21.5H2.37094C1.06151 21.5 0 20.4385 0 19.129V2.87094C0 1.56151 1.06151 0.5 2.37096 0.5H11.8548ZM11.4335 2.53227H2.37094C2.18388 2.53227 2.03224 2.68391 2.03224 2.87096V19.1291C2.03224 19.3161 2.18388 19.4678 2.37094 19.4678H15.9193C16.1064 19.4678 16.258 19.3161 16.258 19.1291V7.35687L11.4335 2.53227Z" fill="white"/>
<path id="Vector_2" d="M7.25323 11.8432C6.85639 11.4464 6.21303 11.4464 5.81619 11.8432C5.41934 12.24 5.41934 12.8834 5.81619 13.2802L8.42898 15.893C8.9701 16.4341 9.84744 16.4341 10.3885 15.893L13.0013 13.2802C13.3981 12.8834 13.3981 12.24 13.0013 11.8432L12.8973 11.7523C12.499 11.4491 11.9281 11.4794 11.5643 11.8432L10.4244 12.9831L10.4249 8.49719C10.4249 7.936 9.96994 7.48105 9.40876 7.48105C8.84755 7.48105 8.39262 7.936 8.39262 8.49719L8.3922 12.9831L7.25323 11.8432Z" fill="white"/>
</g>
</svg>
