<svg width="32" height="32" viewBox="0 0 32 32" fill="none" xmlns="http://www.w3.org/2000/svg">
<g id="Frame 1142812804">
<path id="Rectangle 34624186" opacity="0.5" d="M32 17C32 15.8954 31.1046 15 30 15H20V30H30C31.1046 30 32 29.1046 32 28V17Z" fill="#3788FF"/>
<rect id="Rectangle 34624187" y="2" width="24" height="28" rx="2" fill="#3788FF"/>
<g id="Frame 427319517">
<path id="Vector" d="M13.6927 15.0116C13.7092 15.0669 13.7366 15.1154 13.775 15.1569C13.8135 15.1984 13.8581 15.2303 13.9089 15.2524L18.1634 17.0648L18.2149 17.0918L18.2602 17.125L18.3013 17.1645C18.3137 17.1783 18.3247 17.1935 18.3343 17.2101C18.3453 17.2254 18.3549 17.242 18.3631 17.26C18.3714 17.2766 18.3782 17.2939 18.3837 17.3119L18.3961 17.3679L18.4002 17.426C18.4002 17.4454 18.3988 17.4641 18.3961 17.4821C18.3933 17.5015 18.3892 17.5202 18.3837 17.5381L18.3631 17.5921L18.3343 17.6419L18.3013 17.6876L18.2602 17.7271L18.2128 17.7603C18.1977 17.77 18.1812 17.7783 18.1634 17.7852L13.911 19.5997C13.8588 19.6218 13.8135 19.6536 13.775 19.6952C13.7366 19.7367 13.7092 19.7851 13.6927 19.8405L12.1688 24.5822L12.1585 24.6113L12.1462 24.6382L12.1297 24.6652L12.1132 24.6901L12.0947 24.7151L12.0741 24.7358L12.0535 24.7566L12.0267 24.7773L12.002 24.7939L11.9752 24.8085L11.9485 24.823L11.9196 24.8334L11.8908 24.8417L11.8599 24.8479L11.8311 24.85H11.7693L11.7384 24.8479L11.7096 24.8417L11.6808 24.8334L11.6519 24.823L11.6231 24.8085L11.5963 24.7939L11.5716 24.7773L11.5469 24.7566L11.5263 24.7358L11.5057 24.7151L11.4851 24.6901L11.4686 24.6652L11.4542 24.6382L11.4419 24.6113L11.4316 24.5822L9.90772 19.8384C9.88987 19.7844 9.86241 19.736 9.82534 19.6931C9.7869 19.6516 9.7416 19.6204 9.68943 19.5997L5.43701 17.7852C5.41917 17.7783 5.40201 17.77 5.38553 17.7603L5.34022 17.7271L5.29904 17.6855L5.26403 17.6419C5.25305 17.6253 5.24413 17.6087 5.23726 17.5921L5.21667 17.5381C5.21118 17.5202 5.20706 17.5015 5.20431 17.4821C5.20157 17.4641 5.2002 17.4454 5.2002 17.426L5.20431 17.3679L5.21667 17.3119C5.22216 17.2939 5.22902 17.2766 5.23726 17.26C5.24413 17.242 5.25305 17.2254 5.26403 17.2101C5.27502 17.1935 5.28668 17.1783 5.29904 17.1645L5.34022 17.1229L5.38553 17.0918L5.43701 17.0648L9.68943 15.2524C9.7416 15.2303 9.7869 15.1984 9.82534 15.1569C9.86241 15.1154 9.88987 15.0669 9.90772 15.0116L11.4316 10.2699L11.4419 10.2408L11.4542 10.2118L11.4686 10.1868L11.4851 10.1599L11.5057 10.137L11.5263 10.1142L11.5469 10.0934L11.5716 10.0727L11.5963 10.0561L11.6231 10.0415L11.6519 10.0291L11.6808 10.0187L11.7096 10.0104L11.7405 10.0042L11.7693 10H11.8311L11.8599 10.0042L11.8908 10.0104L11.9196 10.0187L11.9485 10.0291L11.9752 10.0415L12.002 10.0561L12.0267 10.0747L12.0514 10.0934L12.0741 10.1142L12.0947 10.1349L12.1153 10.1599L12.1297 10.1868L12.1462 10.2118L12.1585 10.2408L12.1688 10.2699L13.6927 15.0116Z" fill="white"/>
<path id="Vector_2" d="M20.086 9.80846C20.0774 9.83039 20.0743 9.8534 20.0769 9.87749C20.0794 9.90158 20.0866 9.92448 20.0985 9.9462L21.1059 11.7521L21.1168 11.7755L21.1239 11.799L21.1279 11.8233C21.1286 11.8312 21.1285 11.8391 21.1275 11.847C21.1274 11.855 21.1264 11.8629 21.1246 11.8709C21.1231 11.8784 21.121 11.8858 21.1182 11.893L21.1079 11.9139L21.0942 11.9331C21.0892 11.9391 21.0838 11.9444 21.0782 11.9492C21.0722 11.9544 21.0659 11.9589 21.0593 11.9629L21.0381 11.9735L21.0151 11.9805L20.9918 11.985L20.9672 11.9851L20.9421 11.9815C20.9343 11.9801 20.9264 11.9778 20.9184 11.9747L18.9677 11.2902C18.9438 11.2818 18.9198 11.2784 18.8956 11.28C18.8714 11.2815 18.8493 11.2885 18.8291 11.3007L17.0652 12.3199L17.054 12.3258L17.0427 12.3305L17.0299 12.3341L17.0177 12.3369L17.0048 12.3392L16.9922 12.3396L16.9797 12.34L16.965 12.3386L16.9521 12.3365L16.939 12.3331L16.9259 12.3298L16.9132 12.3245L16.901 12.3186L16.8886 12.3115L16.878 12.3037L16.8566 12.2856L16.8464 12.2759L16.838 12.2656L16.8301 12.2546L16.8228 12.2429L16.8165 12.23L16.811 12.2177L16.8068 12.2053L16.8036 12.1916L16.8018 12.1792L16.8001 12.1667L16.7994 12.153L16.8001 12.1405L16.8021 12.1279L16.8049 12.116L16.8089 12.104L17.5138 10.1918C17.5217 10.1699 17.5247 10.1469 17.523 10.1228C17.5204 10.0987 17.5128 10.0758 17.5001 10.0541L16.4939 8.24816C16.4895 8.2408 16.4857 8.23321 16.4825 8.22539L16.4754 8.20186L16.4719 8.17696L16.4711 8.15324C16.4716 8.14489 16.4728 8.13715 16.4748 8.13L16.4816 8.10729C16.4844 8.10013 16.4879 8.09315 16.4919 8.08635C16.4957 8.07999 16.5001 8.07381 16.5051 8.06783L16.5217 8.05107L16.5405 8.03736C16.5471 8.03341 16.554 8.03007 16.5612 8.02735C16.5683 8.0238 16.5757 8.02128 16.5835 8.0198C16.5916 8.01788 16.5997 8.01659 16.6075 8.01593L16.6327 8.01516L16.6565 8.0188L16.6815 8.02554L18.6316 8.71065C18.6555 8.71908 18.6795 8.72251 18.7037 8.72094C18.7274 8.71896 18.7495 8.71203 18.7702 8.70015L20.5341 7.68103L20.5453 7.67507L20.5572 7.6697L20.5686 7.66623L20.5814 7.66271L20.5945 7.66168L20.6076 7.66066L20.6202 7.66027L20.6342 7.66109L20.6471 7.66319L20.6602 7.66654L20.6734 7.67113L20.6862 7.67637L20.6983 7.68224L20.7107 7.68936L20.7218 7.69652L20.7433 7.71461L20.7522 7.72434L20.7613 7.73531L20.7692 7.74632L20.7765 7.75797L20.7826 7.76965L20.7881 7.78198L20.7918 7.79499L20.7956 7.808L20.798 7.82105L20.7998 7.8335L20.8005 7.84723L20.7985 7.85979L20.7977 7.87231L20.7944 7.88491L20.7904 7.89691L20.086 9.80846Z" fill="white"/>
<path id="Rectangle 34624188" d="M24 25V25.8378C24 27.7263 25.2084 29.4029 27 30.0002H20.5L24 25Z" fill="#3788FF"/>
</g>
</g>
</svg>
