<svg width="32" height="32" viewBox="0 0 32 32" fill="none" xmlns="http://www.w3.org/2000/svg">
<g id="Frame 1142812805">
<path id="Rectangle 34624186" opacity="0.3" d="M10 4C10 2.89543 9.10457 2 8 2H3C1.89543 2 1 2.89543 1 4V15C1 16.1046 1.89543 17 3 17H8C9.10457 17 10 16.1046 10 15V4Z" fill="#18E054"/>
<path id="Rectangle 34624187" d="M6 4C6 2.89543 6.89543 2 8 2H28C29.1046 2 30 2.89543 30 4V27.4384C30 28.7396 28.7772 29.6943 27.5149 29.3787L18.4851 27.1213C18.1666 27.0416 17.8334 27.0416 17.5149 27.1213L8.48507 29.3787C7.22278 29.6943 6 28.7396 6 27.4384V4Z" fill="#18E054"/>
<g id="Frame">
<path id="Vector" d="M13.1957 10.3773C12.1332 11.4801 11.4828 12.915 11.3536 14.4408C11.2245 15.9667 11.6246 17.4904 12.4867 18.756C13.3488 20.0216 14.6203 20.9518 16.0874 21.3903C17.5546 21.8289 19.128 21.7489 20.5432 21.164C20.639 20.539 20.429 19.939 20.3432 19.729C20.1515 19.2623 19.5198 18.4648 18.4657 17.359C18.184 17.0632 18.2023 16.8365 18.3032 16.1615L18.314 16.0857C18.3823 15.624 18.4973 15.3507 20.0515 15.104C20.8415 14.979 21.049 15.294 21.3365 15.7315L21.4332 15.8748C21.7065 16.2748 21.909 16.3665 22.2148 16.5048C22.3523 16.5673 22.5232 16.6465 22.7523 16.7757C23.2957 17.0865 23.2957 17.4373 23.2957 18.2057V18.2932C23.2957 18.619 23.264 18.9057 23.214 19.1548C23.8535 18.3523 24.2991 17.4129 24.5162 16.41C24.7332 15.407 24.7159 14.3675 24.4655 13.3724C24.2151 12.3772 23.7385 11.4533 23.0726 10.6725C22.4067 9.89165 21.5696 9.27505 20.6265 8.87067C20.1657 9.1815 19.5332 9.62234 19.3123 9.92484C19.1998 10.079 19.0398 10.8682 18.5207 10.9332C18.3857 10.9498 18.2032 10.9382 18.0098 10.9257C17.4915 10.8923 16.7832 10.8465 16.5565 11.4623C16.4123 11.8523 16.3873 12.9123 16.8532 13.4623C16.9282 13.5498 16.9423 13.7123 16.8915 13.8948C16.8248 14.134 16.6907 14.2798 16.6482 14.3098C16.5682 14.2632 16.4082 14.0773 16.299 13.9515C16.0382 13.6465 15.7115 13.2682 15.2898 13.1515C15.1365 13.109 14.9682 13.074 14.804 13.039C14.3465 12.9432 13.829 12.834 13.7082 12.5773C13.6198 12.389 13.6207 12.1298 13.6207 11.8565C13.6207 11.509 13.6207 11.1165 13.4507 10.7357C13.3916 10.5998 13.3047 10.4777 13.1957 10.3773ZM17.9998 23.3332C13.3973 23.3332 9.6665 19.6023 9.6665 14.9998C9.6665 10.3973 13.3973 6.6665 17.9998 6.6665C22.6023 6.6665 26.3332 10.3973 26.3332 14.9998C26.3332 19.6023 22.6023 23.3332 17.9998 23.3332Z" fill="white"/>
</g>
</g>
</svg>
