<svg width="25" height="24" viewBox="0 0 25 24" fill="none" xmlns="http://www.w3.org/2000/svg">
<g id="Frame" clip-path="url(#clip0_432_5518)">
<path id="Vector" d="M17.4863 4.18511C20.3558 7.09858 20.3558 11.8225 17.4863 14.7359L16.4217 15.8158H22.0557L24.2905 23H0.290527L2.52539 15.8158H8.15881L7.09472 14.7359C4.22521 11.8225 4.22521 7.09858 7.09472 4.18511C9.96422 1.27163 14.6168 1.27163 17.4863 4.18511ZM9.79114 17.4737H3.72229L2.51886 21.3421H22.0622L20.8593 17.4737H14.7888L12.2905 20.0114L9.79114 17.4737ZM8.24916 5.35724C6.01757 7.62303 6.01757 11.298 8.24916 13.5638L12.2905 17.6666L16.3319 13.5638C18.5635 11.298 18.5635 7.62303 16.3319 5.35724C14.1003 3.09145 10.4808 3.09145 8.24916 5.35724ZM12.2905 6.42105C12.6837 6.42105 13.0729 6.49967 13.4361 6.65242C13.7993 6.80517 14.1293 7.02905 14.4073 7.31129C14.6853 7.59353 14.9058 7.9286 15.0563 8.29737C15.2067 8.66614 15.2841 9.06138 15.2841 9.46053C15.2841 9.85968 15.2067 10.2549 15.0563 10.6237C14.9058 10.9924 14.6853 11.3275 14.4073 11.6098C14.1293 11.892 13.7993 12.1159 13.4361 12.2686C13.0729 12.4214 12.6837 12.5 12.2905 12.5C11.4966 12.5 10.7351 12.1798 10.1737 11.6098C9.61232 11.0397 9.29692 10.2666 9.29692 9.46053C9.29692 8.65441 9.61232 7.88131 10.1737 7.31129C10.7351 6.74128 11.4966 6.42105 12.2905 6.42105ZM12.2905 8.07895C12.1118 8.07895 11.9349 8.11468 11.7698 8.18411C11.6047 8.25354 11.4547 8.35531 11.3283 8.4836C11.202 8.61189 11.1018 8.7642 11.0334 8.93182C10.965 9.09944 10.9298 9.27909 10.9298 9.46053C10.9298 9.64196 10.965 9.82161 11.0334 9.98923C11.1018 10.1569 11.202 10.3092 11.3283 10.4375C11.4547 10.5657 11.6047 10.6675 11.7698 10.7369C11.9349 10.8064 12.1118 10.8421 12.2905 10.8421C12.6514 10.8421 12.9975 10.6965 13.2527 10.4375C13.5079 10.1784 13.6513 9.82694 13.6513 9.46053C13.6513 9.09411 13.5079 8.7427 13.2527 8.4836C12.9975 8.22451 12.6514 8.07895 12.2905 8.07895Z" fill="white"/>
</g>
<defs>
<clipPath id="clip0_432_5518">
<rect width="24" height="24" fill="white" transform="translate(0.290527)"/>
</clipPath>
</defs>
</svg>
