<svg width="19" height="22" viewBox="0 0 19 22" fill="none" xmlns="http://www.w3.org/2000/svg">
<g id="Frame 1142812813">
<path id="Vector" d="M12.1454 0.5C12.2788 0.499998 12.4109 0.526279 12.5342 0.577343C12.6575 0.628406 12.7695 0.703253 12.8639 0.797609L18.2832 6.21697C18.3776 6.31133 18.4524 6.42335 18.5035 6.54663C18.5546 6.66992 18.5809 6.80205 18.5808 6.93549V19.129C18.5808 20.4385 17.5193 21.5 16.2099 21.5H2.66146C1.35204 21.5 0.290527 20.4385 0.290527 19.129V2.87094C0.290527 1.56151 1.35203 0.5 2.66149 0.5H12.1454ZM11.724 2.53227H2.66146C2.47441 2.53227 2.32277 2.68391 2.32277 2.87096V19.1291C2.32277 19.3161 2.47441 19.4678 2.66146 19.4678H16.2099C16.3969 19.4678 16.5486 19.3161 16.5486 19.1291V7.35687L11.724 2.53227Z" fill="white"/>
<path id="Vector_2" d="M9.47289 7.00113C9.02148 7.00113 8.59947 7.28233 8.4147 7.74237L6.72979 11.9547C6.69122 12.0457 6.66998 12.1439 6.66734 12.2438C6.6647 12.3437 6.6807 12.4431 6.71441 12.5363C6.74811 12.6294 6.79884 12.7144 6.86362 12.7863C6.9284 12.8581 7.00592 12.9154 7.09163 12.9547C7.17735 12.9941 7.26954 13.0146 7.36278 13.0153C7.45602 13.0159 7.54844 12.9966 7.63462 12.9585C7.7208 12.9203 7.799 12.8641 7.86464 12.7932C7.93027 12.7222 7.98202 12.6379 8.01683 12.5452L8.4336 11.5003H10.5122L10.93 12.5463C10.9648 12.639 11.0166 12.7233 11.0822 12.7943C11.1478 12.8652 11.226 12.9214 11.3122 12.9596C11.3984 12.9977 11.4908 13.0171 11.5841 13.0164C11.6773 13.0158 11.7695 12.9952 11.8552 12.9559C11.9409 12.9165 12.0184 12.8593 12.0832 12.7874C12.148 12.7155 12.1987 12.6305 12.2324 12.5374C12.2661 12.4442 12.2821 12.3448 12.2795 12.2449C12.2769 12.1451 12.2556 12.0468 12.217 11.9558L10.5311 7.74237C10.4419 7.52123 10.2941 7.33301 10.106 7.20104C9.91786 7.06908 9.69773 6.99918 9.47289 7.00001V7.00113ZM9.03408 10.0009L9.47289 8.90427L9.91171 10.0009H9.03408ZM6.6731 14.5001C6.49222 14.5076 6.32109 14.5899 6.19559 14.7296C6.0701 14.8694 6 15.0558 6 15.2498C6 15.4437 6.0701 15.6301 6.19559 15.7699C6.32109 15.9097 6.49222 15.9919 6.6731 15.9994H12.2727C12.3668 16.0033 12.4608 15.9868 12.5489 15.9509C12.6369 15.915 12.7173 15.8604 12.7852 15.7904C12.8531 15.7204 12.9072 15.6365 12.9441 15.5436C12.981 15.4507 13 15.3507 13 15.2498C13 15.1488 12.981 15.0489 12.9441 14.956C12.9072 14.8631 12.8531 14.7791 12.7852 14.7091C12.7173 14.6391 12.6369 14.5845 12.5489 14.5486C12.4608 14.5127 12.3668 14.4962 12.2727 14.5001H6.6731Z" fill="white"/>
</g>
</svg>
