<svg width="24" height="24" viewBox="0 0 24 24" fill="none" xmlns="http://www.w3.org/2000/svg">
<g id="Frame">
<path id="Vector" d="M11.895 23.5844C6.02359 23.5844 1.26465 18.8262 1.26465 12.9541C1.26465 8.50993 3.99296 4.70443 7.86277 3.11687V3.1195C7.97715 3.07862 8.10052 3.05668 8.2299 3.05668C8.83552 3.05668 9.32996 3.54868 9.32996 4.15581C9.32996 4.63375 9.02396 5.0425 8.59552 5.19325V5.194C5.57996 6.47687 3.46402 9.46862 3.46402 12.9533C3.46402 17.6101 7.23821 21.3842 11.895 21.3842C16.5519 21.3842 20.3261 17.6093 20.3261 12.9533C20.3261 9.46862 18.2116 6.47743 15.1936 5.194C14.7661 5.044 14.4609 4.63525 14.4609 4.15675C14.4609 3.54943 14.9527 3.05743 15.5602 3.05743C15.6881 3.05743 15.8105 3.07937 15.9266 3.12025V3.11762C19.7996 4.70537 22.5247 8.51087 22.5247 12.9548C22.5256 18.8262 17.7658 23.5844 11.895 23.5844ZM11.895 12.2213C11.2886 12.2213 10.7958 11.7291 10.7958 11.1211V1.22443C10.7951 0.618622 11.2886 0.125122 11.895 0.125122C12.5023 0.125122 12.9943 0.61806 12.9943 1.22443V11.1205C12.9945 11.7284 12.5025 12.2213 11.895 12.2213Z" fill="white"/>
</g>
</svg>
