<svg width="24" height="24" viewBox="0 0 24 24" fill="none" xmlns="http://www.w3.org/2000/svg">
<g id="Frame" clip-path="url(#clip0_421_1844)">
<path id="Vector" d="M17.1958 4.18511C20.0653 7.09858 20.0653 11.8225 17.1958 14.7359L16.1312 15.8158H21.7651L24 23H0L2.23486 15.8158H7.86828L6.80419 14.7359C3.93468 11.8225 3.93468 7.09858 6.80419 4.18511C9.6737 1.27163 14.3263 1.27163 17.1958 4.18511ZM9.50061 17.4737H3.43176L2.22833 21.3421H21.7717L20.5688 17.4737H14.4983L12 20.0114L9.50061 17.4737ZM7.95863 5.35724C5.72704 7.62303 5.72704 11.298 7.95863 13.5638L12 17.6666L16.0414 13.5638C18.273 11.298 18.273 7.62303 16.0414 5.35724C13.8098 3.09145 10.1902 3.09145 7.95863 5.35724ZM12 6.42105C12.3931 6.42105 12.7824 6.49967 13.1456 6.65242C13.5088 6.80517 13.8388 7.02905 14.1168 7.31129C14.3948 7.59353 14.6153 7.9286 14.7657 8.29737C14.9162 8.66614 14.9936 9.06138 14.9936 9.46053C14.9936 9.85968 14.9162 10.2549 14.7657 10.6237C14.6153 10.9924 14.3948 11.3275 14.1168 11.6098C13.8388 11.892 13.5088 12.1159 13.1456 12.2686C12.7824 12.4214 12.3931 12.5 12 12.5C11.206 12.5 10.4446 12.1798 9.8832 11.6098C9.32179 11.0397 9.0064 10.2666 9.0064 9.46053C9.0064 8.65441 9.32179 7.88131 9.8832 7.31129C10.4446 6.74128 11.206 6.42105 12 6.42105ZM12 8.07895C11.8213 8.07895 11.6444 8.11468 11.4793 8.18411C11.3142 8.25354 11.1642 8.35531 11.0378 8.4836C10.9115 8.61189 10.8112 8.7642 10.7428 8.93182C10.6745 9.09944 10.6393 9.27909 10.6393 9.46053C10.6393 9.64196 10.6745 9.82161 10.7428 9.98923C10.8112 10.1569 10.9115 10.3092 11.0378 10.4375C11.1642 10.5657 11.3142 10.6675 11.4793 10.7369C11.6444 10.8064 11.8213 10.8421 12 10.8421C12.3609 10.8421 12.707 10.6965 12.9622 10.4375C13.2174 10.1784 13.3607 9.82694 13.3607 9.46053C13.3607 9.09411 13.2174 8.7427 12.9622 8.4836C12.707 8.22451 12.3609 8.07895 12 8.07895Z" fill="#666666"/>
<rect id="Rectangle 34624184" x="-1.08406" y="22.377" width="31.4229" height="3" rx="1.5" transform="rotate(-45 -1.08406 22.377)" fill="#666666" stroke="#F6F7F7"/>
</g>
<defs>
<clipPath id="clip0_421_1844">
<rect width="24" height="24" fill="white"/>
</clipPath>
</defs>
</svg>
