<svg width="32" height="32" viewBox="0 0 32 32" fill="none" xmlns="http://www.w3.org/2000/svg">
<g id="Turtle Studio/Light/generate">
<g id="Rectangle 40755">
<path d="M15.9995 28.3335C22.8109 28.3335 28.3333 22.8119 28.3335 16.0005C28.3335 9.18898 22.811 3.6665 15.9995 3.6665C9.18815 3.66668 3.6665 9.18908 3.6665 16.0005C3.66668 22.8117 9.18826 28.3333 15.9995 28.3335Z" stroke="white" stroke-width="2"/>
<path d="M15.9995 28.3335C22.8109 28.3335 28.3333 22.8119 28.3335 16.0005C28.3335 9.18898 22.811 3.6665 15.9995 3.6665C9.18815 3.66668 3.6665 9.18908 3.6665 16.0005C3.66668 22.8117 9.18826 28.3333 15.9995 28.3335Z" stroke="white" stroke-opacity="0.2" stroke-width="2"/>
<path d="M15.9995 28.3335C22.8109 28.3335 28.3333 22.8119 28.3335 16.0005C28.3335 9.18898 22.811 3.6665 15.9995 3.6665C9.18815 3.66668 3.6665 9.18908 3.6665 16.0005C3.66668 22.8117 9.18826 28.3333 15.9995 28.3335Z" stroke="white" stroke-opacity="0.2" stroke-width="2"/>
<path d="M15.9995 28.3335C22.8109 28.3335 28.3333 22.8119 28.3335 16.0005C28.3335 9.18898 22.811 3.6665 15.9995 3.6665C9.18815 3.66668 3.6665 9.18908 3.6665 16.0005C3.66668 22.8117 9.18826 28.3333 15.9995 28.3335Z" stroke="white" stroke-opacity="0.2" stroke-width="2"/>
</g>
<g id="Star 3">
<path d="M16.0002 7.6665L16.8144 12.6286C17.0392 13.9985 18.0896 15.0857 19.451 15.3576L22.6668 15.9998L19.451 16.6421C18.0896 16.914 17.0392 18.0011 16.8144 19.3711L16.0002 24.3332L15.1859 19.3711C14.9611 18.0011 13.9107 16.914 12.5494 16.6421L9.3335 15.9998L12.5494 15.3576C13.9107 15.0857 14.9611 13.9985 15.1859 12.6286L16.0002 7.6665Z" fill="white"/>
<path d="M16.0002 7.6665L16.8144 12.6286C17.0392 13.9985 18.0896 15.0857 19.451 15.3576L22.6668 15.9998L19.451 16.6421C18.0896 16.914 17.0392 18.0011 16.8144 19.3711L16.0002 24.3332L15.1859 19.3711C14.9611 18.0011 13.9107 16.914 12.5494 16.6421L9.3335 15.9998L12.5494 15.3576C13.9107 15.0857 14.9611 13.9985 15.1859 12.6286L16.0002 7.6665Z" fill="white" fill-opacity="0.2"/>
<path d="M16.0002 7.6665L16.8144 12.6286C17.0392 13.9985 18.0896 15.0857 19.451 15.3576L22.6668 15.9998L19.451 16.6421C18.0896 16.914 17.0392 18.0011 16.8144 19.3711L16.0002 24.3332L15.1859 19.3711C14.9611 18.0011 13.9107 16.914 12.5494 16.6421L9.3335 15.9998L12.5494 15.3576C13.9107 15.0857 14.9611 13.9985 15.1859 12.6286L16.0002 7.6665Z" fill="white" fill-opacity="0.2"/>
<path d="M16.0002 7.6665L16.8144 12.6286C17.0392 13.9985 18.0896 15.0857 19.451 15.3576L22.6668 15.9998L19.451 16.6421C18.0896 16.914 17.0392 18.0011 16.8144 19.3711L16.0002 24.3332L15.1859 19.3711C14.9611 18.0011 13.9107 16.914 12.5494 16.6421L9.3335 15.9998L12.5494 15.3576C13.9107 15.0857 14.9611 13.9985 15.1859 12.6286L16.0002 7.6665Z" fill="white" fill-opacity="0.2"/>
</g>
<g id="Star 4">
<path d="M20.3998 9.3335L20.6115 10.6236C20.67 10.9798 20.9431 11.2625 21.297 11.3332L22.1332 11.5002L21.297 11.6671C20.9431 11.7378 20.67 12.0205 20.6115 12.3767L20.3998 13.6668L20.1881 12.3767C20.1297 12.0205 19.8566 11.7378 19.5026 11.6671L18.6665 11.5002L19.5026 11.3332C19.8566 11.2625 20.1297 10.9798 20.1881 10.6236L20.3998 9.3335Z" fill="white"/>
<path d="M20.3998 9.3335L20.6115 10.6236C20.67 10.9798 20.9431 11.2625 21.297 11.3332L22.1332 11.5002L21.297 11.6671C20.9431 11.7378 20.67 12.0205 20.6115 12.3767L20.3998 13.6668L20.1881 12.3767C20.1297 12.0205 19.8566 11.7378 19.5026 11.6671L18.6665 11.5002L19.5026 11.3332C19.8566 11.2625 20.1297 10.9798 20.1881 10.6236L20.3998 9.3335Z" fill="white" fill-opacity="0.2"/>
<path d="M20.3998 9.3335L20.6115 10.6236C20.67 10.9798 20.9431 11.2625 21.297 11.3332L22.1332 11.5002L21.297 11.6671C20.9431 11.7378 20.67 12.0205 20.6115 12.3767L20.3998 13.6668L20.1881 12.3767C20.1297 12.0205 19.8566 11.7378 19.5026 11.6671L18.6665 11.5002L19.5026 11.3332C19.8566 11.2625 20.1297 10.9798 20.1881 10.6236L20.3998 9.3335Z" fill="white" fill-opacity="0.2"/>
<path d="M20.3998 9.3335L20.6115 10.6236C20.67 10.9798 20.9431 11.2625 21.297 11.3332L22.1332 11.5002L21.297 11.6671C20.9431 11.7378 20.67 12.0205 20.6115 12.3767L20.3998 13.6668L20.1881 12.3767C20.1297 12.0205 19.8566 11.7378 19.5026 11.6671L18.6665 11.5002L19.5026 11.3332C19.8566 11.2625 20.1297 10.9798 20.1881 10.6236L20.3998 9.3335Z" fill="white" fill-opacity="0.2"/>
</g>
</g>
</svg>
