<svg width="24" height="24" viewBox="0 0 24 24" fill="none" xmlns="http://www.w3.org/2000/svg">
<g id="Frame">
<path id="Vector" d="M12 1.5C6.20109 1.5 1.5 6.20109 1.5 12C1.5 17.7989 6.20109 22.5 12 22.5C17.7989 22.5 22.5 17.7989 22.5 12C22.5 6.20109 17.7989 1.5 12 1.5ZM12 20.625C7.23656 20.625 3.375 16.7634 3.375 12C3.375 7.23656 7.23656 3.375 12 3.375C16.7634 3.375 20.625 7.23656 20.625 12C20.625 16.7634 16.7634 20.625 12 20.625Z" fill="#666666"/>
<path id="Vector_2" d="M16.125 11.0625H12.9375V6.375C12.9375 6.12636 12.8387 5.8879 12.6629 5.71209C12.4871 5.53627 12.2486 5.4375 12 5.4375C11.7514 5.4375 11.5129 5.53627 11.3371 5.71209C11.1613 5.8879 11.0625 6.12636 11.0625 6.375V12C11.0625 12.2486 11.1613 12.4871 11.3371 12.6629C11.5129 12.8387 11.7514 12.9375 12 12.9375H16.125C16.3736 12.9375 16.6121 12.8387 16.7879 12.6629C16.9637 12.4871 17.0625 12.2486 17.0625 12C17.0625 11.7514 16.9637 11.5129 16.7879 11.3371C16.6121 11.1613 16.3736 11.0625 16.125 11.0625Z" fill="#666666"/>
</g>
</svg>
