<svg width="24" height="24" viewBox="0 0 24 24" fill="none" xmlns="http://www.w3.org/2000/svg">
<g id="Frame">
<path id="Vector" d="M12.0959 1.98389C17.6452 1.98389 22.1439 6.48255 22.1439 12.0319C22.1439 17.5813 17.6452 22.0799 12.0959 22.0799C6.54649 22.0799 2.04785 17.5813 2.04785 12.0319C2.04785 6.48255 6.54649 1.98389 12.0959 1.98389ZM12.0959 3.90389C7.60688 3.90389 3.96785 7.54293 3.96785 12.0319C3.96785 16.5209 7.6069 20.1599 12.0959 20.1599C16.5848 20.1599 20.2239 16.5209 20.2239 12.0319C20.2239 7.54291 16.5848 3.90389 12.0959 3.90389ZM16.2559 11.3279C16.7861 11.3279 17.2159 11.7577 17.2159 12.2879C17.2159 12.8181 16.7861 13.2479 16.2559 13.2479H7.93587C7.40566 13.2479 6.97587 12.8181 6.97587 12.2879C6.97587 11.7577 7.40566 11.3279 7.93587 11.3279H16.2559Z" fill="#F56845"/>
</g>
</svg>
