<svg width="24" height="24" viewBox="0 0 24 24" fill="none" xmlns="http://www.w3.org/2000/svg">
<g id="Frame">
<path id="Vector" d="M22.875 15.7501C22.7227 15.7501 22.5776 15.7812 22.4449 15.8359V15.8356L22.44 15.8374L22.4351 15.8393L12 20.1574L1.56525 15.8397C1.56369 15.8389 1.56206 15.8383 1.56037 15.8378L1.5555 15.8359L1.55512 15.8363C1.2817 15.733 0.978786 15.7401 0.710526 15.8562C0.442267 15.9723 0.229727 16.1882 0.117915 16.4583C0.00610281 16.7284 0.00379851 17.0314 0.11149 17.3031C0.219181 17.5749 0.428412 17.794 0.694875 17.9142V17.9146L11.5601 22.4104C11.5617 22.4112 11.5633 22.4119 11.565 22.4123L11.5699 22.4142L11.5702 22.4138C11.7064 22.4708 11.8525 22.5001 12.0002 22.5002C12.1478 22.5002 12.2939 22.471 12.4301 22.4142L12.4305 22.4146L12.4354 22.4127C12.4369 22.4119 12.4386 22.4113 12.4403 22.4108L23.3051 17.9149V17.9146C23.5456 17.815 23.7442 17.6352 23.867 17.4056C23.9897 17.1761 24.0291 16.9111 23.9784 16.6558C23.9276 16.4005 23.7899 16.1707 23.5887 16.0055C23.3875 15.8404 23.1353 15.7501 22.875 15.7501ZM0.69525 8.1642V8.16457L11.5605 12.6604L11.5654 12.6623L11.5702 12.6642L11.5706 12.6638C11.7067 12.7209 11.8528 12.7503 12.0003 12.7504C12.1479 12.7505 12.294 12.7212 12.4301 12.6642L12.4305 12.6646L12.4354 12.6627C12.4369 12.6619 12.4386 12.6613 12.4403 12.6608L23.3051 8.16495V8.16457C23.5107 8.07935 23.6864 7.93513 23.8101 7.75012C23.9338 7.56511 23.9998 7.34761 24 7.12507C23.9999 6.90256 23.9339 6.68508 23.8102 6.50011C23.6865 6.31515 23.5107 6.17102 23.3051 6.08595V6.08557L12.4403 1.5897C12.4387 1.58891 12.4371 1.58828 12.4354 1.58782L12.4305 1.58595L12.4301 1.58632C12.2939 1.52956 12.1478 1.50031 12.0002 1.50024C11.8527 1.50018 11.7065 1.52931 11.5702 1.58595L11.5699 1.58557L11.565 1.58745C11.5634 1.58823 11.5618 1.58886 11.5601 1.58932L0.694875 6.08557V6.08595C0.489272 6.17102 0.313514 6.31515 0.189827 6.50011C0.0661399 6.68508 7.96201e-05 6.90256 0 7.12507C0.00011032 7.34762 0.066226 7.56514 0.189983 7.75011C0.31374 7.93508 0.489577 8.07918 0.69525 8.1642ZM22.875 10.8751C22.7227 10.8751 22.5776 10.9062 22.4449 10.9609V10.9606L22.44 10.9628C22.4384 10.9636 22.4368 10.9642 22.4351 10.9647L12 15.2824L1.56525 10.9647C1.56369 10.9639 1.56206 10.9633 1.56037 10.9628L1.5555 10.9606L1.55512 10.9609C1.28127 10.8558 0.977165 10.8617 0.70763 10.9775C0.438095 11.0933 0.224456 11.3098 0.112258 11.5809C6.00703e-05 11.8519 -0.0018217 12.1561 0.107014 12.4285C0.21585 12.7009 0.426794 12.9201 0.694875 13.0392V13.0396L11.5601 17.5354L11.565 17.5373L11.5699 17.5392L11.5702 17.5388C11.7064 17.5958 11.8525 17.6251 12.0002 17.6252C12.1478 17.6252 12.2939 17.596 12.4301 17.5392L12.4305 17.5396L12.4354 17.5377C12.4369 17.5369 12.4386 17.5363 12.4403 17.5358L23.3051 13.0399V13.0396C23.5456 12.94 23.7442 12.7602 23.867 12.5306C23.9897 12.3011 24.0291 12.0361 23.9784 11.7808C23.9276 11.5255 23.7899 11.2957 23.5887 11.1305C23.3875 10.9654 23.1353 10.8751 22.875 10.8751Z" fill="#666666"/>
</g>
</svg>
