<svg width="101" height="101" viewBox="0 0 101 101" fill="none" xmlns="http://www.w3.org/2000/svg">
<g clip-path="url(#clip0_86_9607)">
<path d="M90.4758 18.8109H12.4689C11.4164 18.8115 10.4073 19.2299 9.66317 19.974C8.91901 20.7182 8.50065 21.7273 8.5 22.7797V94.3518C8.50065 95.4042 8.91901 96.4134 9.66317 97.1575C10.4073 97.9017 11.4164 98.32 12.4689 98.3207H90.4758C91.5283 98.3201 92.5375 97.9018 93.2818 97.1577C94.026 96.4135 94.4444 95.4043 94.4451 94.3518V22.7797C94.4444 21.7272 94.026 20.7181 93.2818 19.9739C92.5375 19.2297 91.5283 18.8114 90.4758 18.8109Z" fill="#C6C6C6"/>
<path d="M85.3393 73.4498H17.6036C15.4118 73.4498 13.6348 71.6728 13.6348 69.481V6.24327C13.6348 4.05146 15.4118 2.27441 17.6036 2.27441H85.3393C87.5311 2.27441 89.3081 4.05146 89.3081 6.24327V69.481C89.3081 71.6728 87.5311 73.4498 85.3393 73.4498Z" fill="#F9F9F9"/>
<path d="M14.8913 70.7371V7.49982C14.8913 5.30802 16.6684 3.53097 18.8602 3.53097H86.5958C87.37 3.53097 88.0897 3.75597 88.6999 4.13917C87.9983 3.02032 86.7573 2.27441 85.3393 2.27441H17.6036C15.4118 2.27441 13.6348 4.05146 13.6348 6.24327V69.481C13.6348 70.8994 14.3807 72.14 15.4995 72.842C15.1163 72.2314 14.8913 71.5117 14.8913 70.7375V70.7371Z" fill="url(#paint0_linear_86_9607)"/>
<path d="M77.0063 15.6356H25.9395V18.5458H77.0063V15.6356ZM77.0063 26.7479H25.9395V29.6581H77.0063V26.7479ZM77.0063 37.8626H25.9395V40.7729H77.0063V37.8626ZM77.0063 48.9749H25.9395V51.8856H77.0063V48.9749Z" fill="white"/>
<path d="M32.0254 39.5814L44.8578 52.4142H32.0254V39.5814Z" fill="url(#paint1_linear_86_9607)"/>
<path d="M94.4443 53.4727V23.9469L89.3086 18.8109V53.4723H94.4443V53.4727Z" fill="#C6C6C6"/>
<path d="M100.46 56.1434L94.927 95.3123C94.6504 97.2705 92.9746 98.7258 90.9971 98.7258H11.9471C9.96963 98.7258 8.29381 97.2705 8.01717 95.3123L0.539715 42.3856C0.20242 39.9963 2.05652 37.8615 4.46963 37.8615H28.8819C30.8594 37.8615 32.5352 39.3168 32.8118 41.2746L33.7918 48.2057C34.0684 50.1639 35.7442 51.6192 37.7217 51.6192H96.5311C98.9434 51.6192 100.798 53.7541 100.461 56.1434H100.46Z" fill="url(#paint2_linear_86_9607)"/>
<path d="M80.8555 81.2549H22.0895C21.7674 81.2548 21.4564 81.1372 21.2147 80.9242C20.9731 80.7112 20.8174 80.4175 20.7768 80.0979L20.0415 74.2766C20.0182 74.0904 20.0347 73.9013 20.09 73.722C20.1452 73.5426 20.238 73.3771 20.3622 73.2363C20.4863 73.0955 20.639 72.9828 20.81 72.9055C20.981 72.8282 21.1666 72.7882 21.3542 72.7881H81.5907C81.7784 72.7882 81.9639 72.8282 82.135 72.9055C82.306 72.9828 82.4587 73.0955 82.5828 73.2363C82.7069 73.3771 82.7997 73.5426 82.855 73.722C82.9103 73.9013 82.9268 74.0904 82.9034 74.2766L82.1682 80.0979C82.1276 80.4175 81.9719 80.7112 81.7302 80.9242C81.4886 81.1372 81.1776 81.2548 80.8555 81.2549V81.2549Z" fill="#D5D5D5"/>
</g>
<defs>
<linearGradient id="paint0_linear_86_9607" x1="53.7987" y1="40.1851" x2="3.60608" y2="-10.008" gradientUnits="userSpaceOnUse">
<stop stop-color="white"/>
</linearGradient>
<linearGradient id="paint1_linear_86_9607" x1="40.5037" y1="54.4732" x2="24.9926" y2="38.9626" gradientUnits="userSpaceOnUse">
<stop stop-color="#C2CECE" stop-opacity="0"/>
<stop offset="0.179" stop-color="#AFBCBC" stop-opacity="0.179"/>
<stop offset="1" stop-color="#5B6A6A"/>
</linearGradient>
<linearGradient id="paint2_linear_86_9607" x1="50.5" y1="37.8615" x2="50.5" y2="98.7258" gradientUnits="userSpaceOnUse">
<stop stop-color="#EEF0F4"/>
<stop offset="0.927" stop-color="#E4E4E4"/>
</linearGradient>
<clipPath id="clip0_86_9607">
<rect width="100" height="100" fill="white" transform="translate(0.5 0.5)"/>
</clipPath>
</defs>
</svg>
